<svg width="35" height="35" viewBox="0 0 35 35" fill="none" xmlns="http://www.w3.org/2000/svg">
<path fill-rule="evenodd" clip-rule="evenodd" d="M17.5 1.75C8.80152 1.75 1.75 8.80152 1.75 17.5C1.75 26.1986 8.80152 33.25 17.5 33.25C26.1986 33.25 33.25 26.1986 33.25 17.5C33.25 8.80152 26.1986 1.75 17.5 1.75ZM16.1659 12.931C16.1659 12.1942 16.7632 11.597 17.5 11.597C18.2367 11.597 18.834 12.1942 18.834 12.931V16.1659H22.0691C22.8058 16.1659 23.4031 16.7632 23.4031 17.5C23.4031 18.2368 22.8058 18.834 22.0689 18.834H18.834V22.0691C18.834 22.8058 18.2367 23.4031 17.5 23.4031C16.7632 23.4031 16.1659 22.8058 16.1659 22.0689V18.834H12.931C12.1942 18.834 11.597 18.2368 11.597 17.5C11.597 16.7632 12.1942 16.1659 12.931 16.1659H16.1659V12.931Z" fill="#C0C0C0"/>
</svg>
